<svg width="328" height="355" viewBox="0 0 728 755" fill="none" xmlns="http://www.w3.org/2000/svg">
<g id="food">
<g id="fork-spoon">
<path id="Vector" d="M165.277 263.942L137.683 282.04L425.063 720.205L452.657 702.107L165.277 263.942Z" fill="#FF79DA"/>
<path id="Vector_2" d="M99.5825 99.0488L163.427 196.391C164.663 198.277 165.1 200.576 164.641 202.783C164.183 204.99 162.866 206.924 160.981 208.161C159.096 209.397 156.797 209.834 154.59 209.375C152.383 208.917 150.448 207.6 149.212 205.715L75.8148 93.8077C65.8523 92.9757 55.8386 94.6203 46.6655 98.595L126.634 220.523C127.87 222.408 128.306 224.706 127.847 226.913C127.388 229.12 126.072 231.054 124.187 232.29C122.302 233.526 120.004 233.963 117.797 233.505C115.59 233.046 113.656 231.73 112.419 229.846L32.4502 107.918C25.1497 114.748 19.6515 123.278 16.4452 132.747L89.842 244.654C91.0775 246.539 91.5138 248.837 91.0548 251.044C90.5959 253.251 89.2793 255.185 87.3946 256.421C85.5099 257.657 83.2115 258.094 81.0047 257.636C78.7979 257.178 76.8634 255.862 75.6267 253.977L11.7823 156.635C10.1425 183.776 18.9918 215.946 38.3856 245.516C74.4298 300.472 133.225 325.625 169.709 301.696C206.192 277.768 206.548 213.819 170.504 158.863C151.11 129.293 125.13 108.359 99.5825 99.0488Z" fill="#FF79DA"/>
<path id="Vector_3" d="M289 204H256V728H289V204Z" fill="#9356DC"/>
<path id="Vector_4" d="M272 238C315.63 238 351 184.722 351 119C351 53.2781 315.63 0 272 0C228.37 0 193 53.2781 193 119C193 184.722 228.37 238 272 238Z" fill="#9356DC"/>
<path id="Vector_5" d="M272 216.911C307.899 216.911 337 173.075 337 119C337 64.925 307.899 21.0886 272 21.0886C236.101 21.0886 207 64.925 207 119C207 173.075 236.101 216.911 272 216.911Z" fill="#663C9A"/>
</g>
<g id="hat">
<path id="Vector_6" d="M556 394C545.656 393.991 535.382 395.71 525.605 399.086C511.343 368.154 488.555 341.931 459.913 323.495C431.272 305.059 397.966 295.174 363.904 295.002C329.843 294.83 296.439 304.377 267.613 322.523C238.786 340.669 215.734 366.66 201.161 397.447C186.811 393.421 171.703 392.904 157.111 395.937C142.519 398.97 128.87 405.466 117.313 414.877C105.756 424.288 96.6299 436.339 90.7037 450.014C84.7775 463.689 82.2246 478.589 83.2601 493.457C84.2955 508.325 88.889 522.726 96.6535 535.448C104.418 548.169 115.126 558.839 127.876 566.557C140.626 574.275 155.044 578.817 169.915 579.798C184.787 580.78 199.677 578.173 213.331 572.197C229.741 597.204 252.155 617.7 278.526 631.814C304.897 645.928 334.384 653.211 364.294 652.995C394.203 652.78 423.582 645.075 449.747 630.582C475.913 616.09 498.03 595.273 514.079 570.033C526.617 576.363 540.426 579.771 554.47 580.001C568.514 580.231 582.427 577.277 595.166 571.361C607.905 565.446 619.139 556.722 628.024 545.844C636.91 534.966 643.216 522.217 646.47 508.553C649.724 494.89 649.841 480.667 646.812 466.951C643.783 453.236 637.688 440.385 628.982 429.363C620.277 418.34 609.188 409.432 596.549 403.308C583.909 397.183 570.046 394.001 556 394V394Z" fill="white"/>
<path id="Vector_7" d="M579.268 733.693C442.855 709.105 303.145 709.105 166.732 733.693C164.565 734.086 162.339 733.998 160.209 733.436C158.08 732.874 156.1 731.852 154.409 730.441C152.718 729.031 151.357 727.266 150.422 725.272C149.488 723.278 149.002 721.103 149 718.901V532H597V718.901C596.998 721.103 596.512 723.278 595.578 725.272C594.643 727.266 593.282 729.031 591.591 730.441C589.9 731.852 587.92 732.874 585.791 733.436C583.661 733.998 581.435 734.086 579.268 733.693V733.693Z" fill="white"/>
<path id="Vector_8" d="M185 474H183C182.932 447.373 188.825 421.068 200.247 397.015L202.055 397.871C190.76 421.657 184.932 447.669 185 474V474Z" fill="#3F3D56"/>
<path id="Vector_9" d="M543 474H541C541.062 448.276 535.501 422.849 524.706 399.499L526.522 398.661C537.439 422.273 543.063 447.986 543 474V474Z" fill="#3F3D56"/>
<path id="Vector_10" d="M149.241 618.971L148.759 617.029C149.323 616.89 206.162 602.93 289.459 596.003C366.34 589.61 482.146 588.068 597.244 617.03L596.756 618.97C481.939 590.08 366.387 591.615 289.667 597.993C206.519 604.904 149.804 618.831 149.241 618.971Z" fill="#3F3D56"/>
<path id="Vector_11" d="M149.241 645.971L148.759 644.029C149.323 643.89 206.162 629.93 289.459 623.003C366.34 616.61 482.146 615.068 597.244 644.03L596.756 645.97C481.939 617.08 366.387 618.617 289.667 624.993C206.519 631.904 149.804 645.831 149.241 645.971Z" fill="#3F3D56"/>
<path id="Vector_12" d="M149.241 672.971L148.759 671.029C149.323 670.89 206.162 656.93 289.459 650.003C366.34 643.61 482.146 642.068 597.244 671.03L596.756 672.97C481.939 644.08 366.387 645.617 289.667 651.993C206.519 658.904 149.804 672.831 149.241 672.971Z" fill="#3F3D56"/>
</g>
<g id="man">
<path id="Vector_13" d="M517.267 526.156L493.037 517.918L516.298 399.189L500.306 397.735C484.712 409.699 463.946 414.39 437.307 410.819L479.952 475.272L458.207 490.622L388.839 407.416C385.712 403.666 384 398.938 384 394.055C384 389.528 385.472 385.124 388.194 381.507C390.916 377.891 394.741 375.257 399.091 374.004L473.168 352.667L559.912 362.359C573.027 382.353 573.54 396.258 553.576 400.27L517.267 526.156Z" fill="#2F2E41"/>
<path id="Vector_14" d="M492.467 572.344C489.962 572.185 487.53 571.438 485.368 570.163C483.207 568.888 481.376 567.122 480.025 565.006C478.674 562.891 477.841 560.487 477.594 557.99C477.347 555.492 477.692 552.972 478.601 550.633L490.647 519.657C496.766 508.066 505.164 509.517 515.08 519.657L519.926 533.872C520.325 535.043 520.483 536.282 520.391 537.515C520.3 538.748 519.959 539.95 519.391 541.048L507.65 563.749C506.226 566.5 504.033 568.778 501.337 570.305C498.641 571.831 495.559 572.539 492.467 572.344V572.344Z" fill="#2F2E41"/>
<path id="Vector_15" d="M461.152 531.781C458.647 531.622 456.215 530.875 454.054 529.601C451.892 528.326 450.061 526.559 448.71 524.444C447.36 522.329 446.527 519.925 446.279 517.427C446.032 514.93 446.377 512.409 447.287 510.07L459.333 479.094C465.451 467.503 473.849 468.954 483.765 479.094L488.611 493.31C489.01 494.48 489.169 495.719 489.077 496.952C488.985 498.186 488.645 499.387 488.076 500.486L476.335 523.186C474.912 525.938 472.718 528.216 470.022 529.742C467.326 531.268 464.244 531.977 461.152 531.781Z" fill="#2F2E41"/>
<path id="Vector_16" d="M476.56 239.269C491.548 239.269 503.698 227.119 503.698 212.131C503.698 197.143 491.548 184.993 476.56 184.993C461.572 184.993 449.422 197.143 449.422 212.131C449.422 227.119 461.572 239.269 476.56 239.269Z" fill="#D2B48C"/>
<path id="Vector_17" d="M518.721 250.415L481.406 269.799L473.652 234.907L499.336 218.915L518.721 250.415Z" fill="#D2B48C"/>
<path id="Vector_18" d="M563.789 367.205C526.555 355.959 492.771 350.132 468.322 358.967C476.749 335.258 461.194 299.055 444.091 262.045C451.471 252.398 463.237 248.662 476.56 247.022C491.137 257.607 501.301 250.813 509.029 234.423C525.882 233.746 542.124 239.714 557.974 249.93C545.584 289.616 547.814 328.696 563.789 367.205Z" fill="#BCC0BB"/>
<path id="Vector_19" d="M467.837 364.782C461.957 368.247 456.531 374.085 451.36 381.258C442.622 375.909 434.932 369.819 428.874 362.576C424.634 357.44 421.743 351.327 420.463 344.791C419.183 338.255 419.554 331.503 421.544 325.147L438.105 271.325C439.48 266.855 442.152 262.894 445.782 259.944L447.968 258.168L469.775 299.36L447.968 340.067C450.734 347.482 458.883 356.046 467.837 364.782Z" fill="#BCC0BB"/>
<path id="Vector_20" d="M475.343 405.817C473.366 406.719 471.206 407.148 469.035 407.07C466.863 406.993 464.74 406.411 462.832 405.371C460.924 404.332 459.284 402.862 458.042 401.079C456.8 399.296 455.99 397.249 455.676 395.099L452.072 370.424L464.672 363.64L480.663 384.573C481.94 386.245 482.824 388.184 483.249 390.244C483.675 392.305 483.63 394.435 483.119 396.476C482.608 398.518 481.643 400.417 480.297 402.034C478.951 403.652 477.258 404.945 475.343 405.817V405.817Z" fill="#D2B48C"/>
<path id="Vector_21" d="M503.94 210.943L499.307 211.081L486.454 192.873C469.984 194.576 456.489 201.731 445.068 212.692L443.91 204.972C442.806 197.61 444.565 190.105 448.825 184.001C453.085 177.896 459.523 173.656 466.813 172.153H466.813C470.643 171.364 474.592 171.354 478.425 172.124C482.259 172.895 485.898 174.43 489.124 176.638C492.351 178.846 495.1 181.682 497.207 184.976C499.313 188.27 500.734 191.955 501.385 195.81L503.94 210.943Z" fill="#F0E2B6"/>
<path id="Vector_22" d="M451.828 381.268C450.927 379.291 450.498 377.131 450.575 374.96C450.653 372.789 451.234 370.665 452.274 368.757C453.314 366.849 454.783 365.209 456.566 363.967C458.349 362.726 460.397 361.916 462.547 361.602L487.221 357.997L494.006 370.597L473.072 386.588C471.4 387.865 469.462 388.749 467.401 389.175C465.34 389.6 463.21 389.555 461.169 389.044C459.128 388.533 457.228 387.569 455.611 386.222C453.994 384.876 452.701 383.183 451.828 381.268V381.268Z" fill="#D2B48C"/>
<path id="Vector_23" d="M568.49 358.824C545.015 360.647 519.384 367.967 492.552 378.351C492.219 370.386 489.33 362.739 484.314 356.543C508.684 350.125 530.798 342.592 544.405 330.859L536.167 268.83L554.097 248.476L557.19 250.09C559.759 251.424 562.018 253.284 563.821 255.548C565.625 257.813 566.932 260.431 567.659 263.233C575.23 292.682 578.592 320.898 576.281 347.451C576.579 349.968 575.954 352.509 574.521 354.6C573.089 356.692 570.946 358.192 568.49 358.824V358.824Z" fill="#BCC0BB"/>
</g>
<g id="salt-pepper">
<path id="Vector_24" d="M95.8859 728.112C74.0536 741.767 52.2212 741.761 30.3887 728.095C29.6976 727.669 29.1363 727.062 28.7658 726.34C28.3954 725.618 28.23 724.808 28.2875 723.998L35.0999 635.437H90.2004L97.9832 723.967C98.0504 724.784 97.89 725.604 97.5198 726.336C97.1496 727.067 96.5841 727.682 95.8859 728.112V728.112Z" fill="#3F3D56"/>
<path id="Vector_25" d="M62.396 646.457C77.7519 646.457 90.2004 641.972 90.2004 636.439C90.2004 630.906 77.7519 626.421 62.396 626.421C47.0401 626.421 34.5916 630.906 34.5916 636.439C34.5916 641.972 47.0401 646.457 62.396 646.457Z" fill="#3F3D56"/>
<path id="Vector_26" d="M84.1894 633.057C69.7011 643.249 55.6755 643.249 42.1127 633.057V617.028H84.1894V633.057Z" fill="#FF79DA"/>
<path id="Vector_27" d="M63.151 625.042C74.7702 625.042 84.1894 621.454 84.1894 617.028C84.1894 612.601 74.7702 609.013 63.151 609.013C51.5319 609.013 42.1127 612.601 42.1127 617.028C42.1127 621.454 51.5319 625.042 63.151 625.042Z" fill="#B25498"/>
<path id="Vector_28" d="M64.1529 617.028C65.2595 617.028 66.1565 616.579 66.1565 616.026C66.1565 615.473 65.2595 615.024 64.1529 615.024C63.0463 615.024 62.1492 615.473 62.1492 616.026C62.1492 616.579 63.0463 617.028 64.1529 617.028Z" fill="#E6E6E6"/>
<path id="Vector_29" d="M73.614 617.028C74.7206 617.028 75.6176 616.579 75.6176 616.026C75.6176 615.473 74.7206 615.024 73.614 615.024C72.5074 615.024 71.6103 615.473 71.6103 616.026C71.6103 616.579 72.5074 617.028 73.614 617.028Z" fill="#E6E6E6"/>
<path id="Vector_30" d="M68.8834 619.393C69.99 619.393 70.8871 618.945 70.8871 618.391C70.8871 617.838 69.99 617.389 68.8834 617.389C67.7768 617.389 66.8798 617.838 66.8798 618.391C66.8798 618.945 67.7768 619.393 68.8834 619.393Z" fill="#E6E6E6"/>
<path id="Vector_31" d="M49.9612 619.393C51.0678 619.393 51.9648 618.945 51.9648 618.391C51.9648 617.838 51.0678 617.389 49.9612 617.389C48.8546 617.389 47.9576 617.838 47.9576 618.391C47.9576 618.945 48.8546 619.393 49.9612 619.393Z" fill="#E6E6E6"/>
<path id="Vector_32" d="M54.6918 617.028C55.7983 617.028 56.6954 616.579 56.6954 616.026C56.6954 615.473 55.7983 615.024 54.6918 615.024C53.5852 615.024 52.6881 615.473 52.6881 616.026C52.6881 616.579 53.5852 617.028 54.6918 617.028Z" fill="#E6E6E6"/>
<path id="Vector_33" d="M59.4223 620.576C60.5289 620.576 61.426 620.127 61.426 619.574C61.426 619.021 60.5289 618.572 59.4223 618.572C58.3157 618.572 57.4187 619.021 57.4187 619.574C57.4187 620.127 58.3157 620.576 59.4223 620.576Z" fill="#E6E6E6"/>
<path id="Vector_34" d="M700.886 728.112C679.054 741.767 657.221 741.761 635.389 728.095C634.698 727.669 634.136 727.062 633.766 726.34C633.395 725.618 633.23 724.808 633.287 723.998L640.1 635.437H695.2L702.983 723.967C703.05 724.784 702.89 725.604 702.52 726.336C702.15 727.067 701.584 727.682 700.886 728.112V728.112Z" fill="#3F3D56"/>
<path id="Vector_35" d="M667.396 646.457C682.752 646.457 695.2 641.972 695.2 636.439C695.2 630.906 682.752 626.421 667.396 626.421C652.04 626.421 639.592 630.906 639.592 636.439C639.592 641.972 652.04 646.457 667.396 646.457Z" fill="#3F3D56"/>
<path id="Vector_36" d="M689.189 633.057C674.701 643.249 660.675 643.249 647.113 633.057V617.028H689.189V633.057Z" fill="#9356DC"/>
<path id="Vector_37" d="M668.151 625.042C679.77 625.042 689.189 621.454 689.189 617.028C689.189 612.601 679.77 609.013 668.151 609.013C656.532 609.013 647.113 612.601 647.113 617.028C647.113 621.454 656.532 625.042 668.151 625.042Z" fill="#663C9A"/>
<path id="Vector_38" d="M669.153 617.028C670.259 617.028 671.156 616.579 671.156 616.026C671.156 615.473 670.259 615.024 669.153 615.024C668.046 615.024 667.149 615.473 667.149 616.026C667.149 616.579 668.046 617.028 669.153 617.028Z" fill="#E6E6E6"/>
<path id="Vector_39" d="M678.614 617.028C679.721 617.028 680.618 616.579 680.618 616.026C680.618 615.473 679.721 615.024 678.614 615.024C677.507 615.024 676.61 615.473 676.61 616.026C676.61 616.579 677.507 617.028 678.614 617.028Z" fill="#E6E6E6"/>
<path id="Vector_40" d="M673.883 619.393C674.99 619.393 675.887 618.945 675.887 618.391C675.887 617.838 674.99 617.389 673.883 617.389C672.777 617.389 671.88 617.838 671.88 618.391C671.88 618.945 672.777 619.393 673.883 619.393Z" fill="#E6E6E6"/>
<path id="Vector_41" d="M654.961 619.393C656.068 619.393 656.965 618.945 656.965 618.391C656.965 617.838 656.068 617.389 654.961 617.389C653.855 617.389 652.958 617.838 652.958 618.391C652.958 618.945 653.855 619.393 654.961 619.393Z" fill="#E6E6E6"/>
<path id="Vector_42" d="M659.692 617.028C660.798 617.028 661.695 616.579 661.695 616.026C661.695 615.473 660.798 615.024 659.692 615.024C658.585 615.024 657.688 615.473 657.688 616.026C657.688 616.579 658.585 617.028 659.692 617.028Z" fill="#E6E6E6"/>
<path id="Vector_43" d="M664.422 620.576C665.529 620.576 666.426 620.127 666.426 619.574C666.426 619.021 665.529 618.572 664.422 618.572C663.316 618.572 662.419 619.021 662.419 619.574C662.419 620.127 663.316 620.576 664.422 620.576Z" fill="#E6E6E6"/>
</g>
<g id="cat">
<path id="Vector_2_2" d="M145.739 359.899L144.52 347.269C144.404 347 144.21 346.758 143.953 346.568C143.697 346.377 143.387 346.243 143.052 346.177C142.717 346.112 142.368 346.117 142.036 346.193C141.705 346.269 141.401 346.413 141.154 346.612L126.288 358.2C121.592 357.372 116.765 357.191 111.998 357.665L111.623 345.215C111.522 344.939 111.339 344.688 111.091 344.487C110.842 344.285 110.537 344.139 110.202 344.062C109.868 343.985 109.515 343.98 109.178 344.047C108.84 344.113 108.528 344.25 108.271 344.444L96.2771 355.504C87.9644 359.213 81.2985 365.041 77.2568 372.133C73.2152 379.224 72.0103 387.207 73.8189 394.91C75.6276 402.613 80.3545 409.631 87.3067 414.936C94.2589 420.24 103.071 423.552 112.45 424.385C121.83 425.219 131.283 423.53 139.425 419.567C147.566 415.603 153.968 409.574 157.691 402.362C161.413 395.15 162.261 387.136 160.11 379.494C157.96 371.853 152.923 364.985 145.739 359.899Z" fill="#3F3D56"/>
<path id="Vector_3_2" d="M151.249 411.151C167.485 410.936 187.91 458.343 149.436 458.589C129.528 458.716 94.2844 461.946 94.2844 461.946C94.2844 461.946 66.8879 427.734 79.1064 406.45L151.249 411.151Z" fill="#3F3D56"/>
<path id="Vector_4_2" d="M115.538 436.203V460.765H129.339L140.289 435.755" fill="#3F3D56"/>
<path id="Vector_5_2" d="M129.339 461.213H115.538C115.395 461.213 115.258 461.166 115.158 461.082C115.057 460.998 115 460.884 115 460.765V436.203C115 436.085 115.057 435.971 115.158 435.887C115.258 435.803 115.395 435.756 115.538 435.756C115.681 435.756 115.818 435.803 115.918 435.887C116.019 435.971 116.076 436.085 116.076 436.203V460.318H128.963L139.783 435.602C139.832 435.491 139.932 435.4 140.062 435.35C140.191 435.3 140.339 435.294 140.473 435.335C140.607 435.376 140.716 435.459 140.777 435.566C140.837 435.674 140.843 435.797 140.794 435.909L129.845 460.919C129.807 461.005 129.738 461.08 129.648 461.132C129.557 461.185 129.45 461.213 129.339 461.213Z" fill="white"/>
<path id="Vector_6_2" d="M151.319 462.394C157.559 462.394 162.618 460.991 162.618 459.26C162.618 457.529 157.559 456.126 151.319 456.126C145.079 456.126 140.02 457.529 140.02 459.26C140.02 460.991 145.079 462.394 151.319 462.394Z" fill="#3F3D56"/>
<path id="Vector_7_2" d="M145.669 456.574C145.554 456.574 145.442 456.543 145.35 456.486C145.257 456.429 145.189 456.349 145.155 456.258C145.096 456.097 139.38 440.147 152.921 435.344C152.986 435.321 153.056 435.308 153.127 435.307C153.198 435.307 153.268 435.318 153.334 435.339C153.4 435.361 153.46 435.394 153.51 435.435C153.561 435.476 153.601 435.525 153.629 435.58C153.657 435.634 153.672 435.692 153.672 435.751C153.673 435.81 153.66 435.868 153.633 435.923C153.606 435.978 153.567 436.027 153.517 436.069C153.468 436.111 153.409 436.145 153.343 436.168C140.683 440.658 146.127 455.842 146.184 455.995C146.226 456.108 146.212 456.231 146.145 456.336C146.078 456.441 145.964 456.519 145.828 456.554C145.776 456.567 145.723 456.574 145.669 456.574Z" fill="white"/>
<path id="Vector_8_2" d="M164.836 452.482C164.761 452.392 164.705 452.297 164.64 452.204C164.052 452.222 163.464 452.24 162.876 452.258L164.836 452.482Z" fill="#3F3D56"/>
<path id="Vector_9_2" d="M223.471 438.29C219.065 432.431 208.286 430.803 201.686 435C198.709 436.894 196.702 439.632 194.157 441.922C189.878 445.751 184.17 448.264 177.958 449.056C173.634 449.595 169.061 449.302 165.068 450.784C161.196 452.22 158.274 456.321 160.382 459.289C175.246 458.833 190.109 458.377 204.972 457.921C209.248 457.79 213.676 457.628 217.499 456.03C224.922 452.927 227.876 444.149 223.471 438.29Z" fill="#3F3D56"/>
<path id="Vector_10_2" d="M113.743 421.319C107.638 421.365 101.587 420.361 95.9708 418.368C84.2453 414.133 78.8711 406.986 78.648 406.684C78.5746 406.583 78.5523 406.462 78.5858 406.347C78.6193 406.232 78.7059 406.133 78.8269 406.071C78.9478 406.009 79.0932 405.99 79.2314 406.017C79.3696 406.044 79.4894 406.115 79.5647 406.215C83.8126 411.235 89.6623 415.166 96.4535 417.566C107.013 421.365 125.044 423.268 150.98 410.763C151.041 410.734 151.108 410.714 151.179 410.706C151.249 410.699 151.32 410.702 151.389 410.717C151.457 410.732 151.521 410.758 151.577 410.794C151.634 410.83 151.681 410.875 151.717 410.926C151.752 410.977 151.775 411.033 151.784 411.091C151.794 411.15 151.789 411.209 151.771 411.266C151.752 411.323 151.721 411.376 151.678 411.423C151.634 411.47 151.581 411.509 151.519 411.538C136.294 418.879 123.724 421.319 113.743 421.319Z" fill="white"/>
<path id="Vector_11_2" d="M116.076 398.596C115.077 398.595 114.12 398.265 113.414 397.677C112.708 397.09 112.311 396.293 112.31 395.462C112.31 395.344 112.366 395.23 112.467 395.146C112.568 395.062 112.705 395.014 112.848 395.014C112.99 395.014 113.127 395.062 113.228 395.146C113.329 395.23 113.386 395.344 113.386 395.462C113.386 396.056 113.669 396.625 114.174 397.045C114.678 397.465 115.363 397.701 116.076 397.701C116.79 397.701 117.474 397.465 117.978 397.045C118.483 396.625 118.766 396.056 118.766 395.462C118.766 395.344 118.823 395.23 118.924 395.146C119.025 395.062 119.162 395.014 119.304 395.014C119.447 395.014 119.584 395.062 119.685 395.146C119.786 395.23 119.842 395.344 119.842 395.462C119.841 396.293 119.444 397.09 118.738 397.677C118.032 398.265 117.075 398.595 116.076 398.596Z" fill="white"/>
<path id="Vector_12_2" d="M110.964 459.336C110.85 459.336 110.739 459.306 110.647 459.25C110.555 459.194 110.487 459.115 110.452 459.024L101.843 436.563C101.821 436.507 101.813 436.448 101.818 436.389C101.824 436.33 101.844 436.273 101.876 436.221C101.909 436.168 101.953 436.122 102.007 436.084C102.061 436.046 102.124 436.017 102.191 435.999C102.259 435.981 102.33 435.975 102.4 435.98C102.471 435.985 102.54 436.001 102.602 436.028C102.665 436.055 102.721 436.093 102.767 436.138C102.812 436.183 102.847 436.235 102.868 436.291L111.477 458.752C111.503 458.819 111.509 458.89 111.495 458.96C111.482 459.029 111.449 459.095 111.399 459.152C111.349 459.209 111.283 459.255 111.208 459.287C111.132 459.319 111.049 459.336 110.964 459.336Z" fill="white"/>
<path id="Vector_13_2" d="M122.264 465.528C128.504 465.528 133.563 464.125 133.563 462.394C133.563 460.663 128.504 459.26 122.264 459.26C116.023 459.26 110.965 460.663 110.965 462.394C110.965 464.125 116.023 465.528 122.264 465.528Z" fill="#3F3D56"/>
<path id="Vector_14_2" d="M103.969 465.08C110.21 465.08 115.269 463.677 115.269 461.946C115.269 460.216 110.21 458.812 103.969 458.812C97.729 458.812 92.6702 460.216 92.6702 461.946C92.6702 463.677 97.729 465.08 103.969 465.08Z" fill="#3F3D56"/>
<path id="Vector_15_2" d="M116.345 391.243C118.722 391.243 120.65 390.627 120.65 389.866C120.65 389.105 118.722 388.488 116.345 388.488C113.968 388.488 112.041 389.105 112.041 389.866C112.041 390.627 113.968 391.243 116.345 391.243Z" fill="white"/>
<path id="Vector_16_2" d="M87.4015 389.967C88.6332 388.74 90.1737 387.753 91.9142 387.076C93.6547 386.398 95.5527 386.047 97.4741 386.047C99.3955 386.047 101.293 386.398 103.034 387.076C104.774 387.753 106.315 388.74 107.547 389.967C109.634 388.309 111.083 386.174 111.711 383.831C112.34 381.488 112.119 379.043 111.077 376.804C110.035 374.566 108.219 372.634 105.858 371.255C103.497 369.875 100.697 369.109 97.8125 369.053C94.9282 368.998 92.0889 369.655 89.6535 370.942C87.2181 372.229 85.2961 374.088 84.1305 376.284C82.9649 378.48 82.608 380.914 83.105 383.279C83.6021 385.643 84.9307 387.832 86.9229 389.569C87.0787 389.704 87.2382 389.837 87.4015 389.967Z" fill="white"/>
<path id="Vector_17_2" d="M126.787 389.967C128.019 388.74 129.559 387.753 131.3 387.076C133.04 386.398 134.938 386.047 136.86 386.047C138.781 386.047 140.679 386.398 142.419 387.076C144.16 387.753 145.7 388.74 146.932 389.967C149.019 388.309 150.468 386.174 151.097 383.831C151.725 381.488 151.504 379.043 150.462 376.804C149.42 374.566 147.604 372.634 145.243 371.255C142.882 369.875 140.082 369.109 137.198 369.053C134.314 368.998 131.474 369.655 129.039 370.942C126.604 372.229 124.682 374.088 123.516 376.284C122.35 378.48 121.994 380.914 122.491 383.279C122.988 385.643 124.316 387.832 126.308 389.569C126.464 389.704 126.624 389.837 126.787 389.967Z" fill="white"/>
<path id="Vector_18_2" d="M91.0788 386.543C93.8501 386.543 96.0967 384.674 96.0967 382.368C96.0967 380.062 93.8501 378.193 91.0788 378.193C88.3076 378.193 86.061 380.062 86.061 382.368C86.061 384.674 88.3076 386.543 91.0788 386.543Z" fill="#9356DC"/>
<path id="Vector_19_2" d="M130.463 386.543C133.234 386.543 135.481 384.674 135.481 382.368C135.481 380.062 133.234 378.193 130.463 378.193C127.692 378.193 125.445 380.062 125.445 382.368C125.445 384.674 127.692 386.543 130.463 386.543Z" fill="#9356DC"/>
<path id="Vector_20_2" d="M137.329 398.802C139.758 398.802 141.726 397.164 141.726 395.144C141.726 393.123 139.758 391.485 137.329 391.485C134.901 391.485 132.932 393.123 132.932 395.144C132.932 397.164 134.901 398.802 137.329 398.802Z" fill="#FF79DA"/>
<path id="Vector_21_2" d="M97.594 398.802C100.022 398.802 101.991 397.164 101.991 395.144C101.991 393.123 100.022 391.485 97.594 391.485C95.1656 391.485 93.197 393.123 93.197 395.144C93.197 397.164 95.1656 398.802 97.594 398.802Z" fill="#FF79DA"/>
</g>
</g>
</svg>
